<svg fill="none" height="15" viewBox="0 0 15 15" width="15" xmlns="http://www.w3.org/2000/svg"><path d="m5.5 7h4v-1h-4zm4.5.5v3h1v-3zm-.5 3.5h-4v1h4zm-4.5-.5v-3h-1v3zm.5.5c-.27614 0-.5-.2239-.5-.5h-1c0 .8284.67157 1.5 1.5 1.5zm4.5-.5c0 .2761-.22386.5-.5.5v1c.8284 0 1.5-.6716 1.5-1.5zm-.5-3.5c.27614 0 .5.22386.5.5h1c0-.82843-.6716-1.5-1.5-1.5zm-4-1c-.82843 0-1.5.67157-1.5 1.5h1c0-.27614.22386-.5.5-.5zm.5.5v-1h-1v1zm3-1v1h1v-1zm-1.5-1.5c.82843 0 1.5.67157 1.5 1.5h1c0-1.38071-1.11929-2.5-2.5-2.5zm-1.5 1.5c0-.82843.67157-1.5 1.5-1.5v-1c-1.38071 0-2.5 1.11929-2.5 2.5zm-5 2c0-3.58985 2.91015-6.500001 6.5-6.5v-1c-4.14213-.00000089-7.49999911 3.35786-7.5 7.5zm6.5 6.5c-3.58985 0-6.500001-2.9102-6.5-6.5h-1c-.00000089 4.1421 3.35786 7.5 7.5 7.5zm6.5-6.5c0 3.5899-2.9102 6.5-6.5 6.5v1c4.1421 0 7.5-3.3579 7.5-7.5zm1 0c0-4.14213-3.3579-7.49999911-7.5-7.5v1c3.5899 0 6.5 2.91015 6.5 6.5z" fill="#000"/></svg>